<svg data-v-423bf9ae="" xmlns="http://www.w3.org/2000/svg" viewBox="0 0 220 107" class="iconLeft"><!----><!----><!----><g data-v-423bf9ae="" id="e122c0f1-51d0-4e9e-b367-270cacf63039" fill="white" transform="matrix(4.285714577655423,0,0,4.285714577655423,102.29923796759786,-7.7478716645923456)"><path d="M9.58 7.21L9.58 7.21Q10.11 7.60 10.40 8.20L10.40 8.20L10.40 8.20Q10.70 8.81 10.70 9.42L10.70 9.42L10.70 9.42Q10.70 9.95 10.54 10.56L10.54 10.56L10.54 10.56Q10.37 11.17 10.12 11.75L10.12 11.75L7.21 18.42L5.40 13.57L3.61 18.42L-0.01 8.61L1.32 8.12L3.99 15.57L5.08 12.67L3.81 9.25L5.17 8.75L7.67 15.83L9.10 12.60L9.10 12.60Q9.34 12.01 9.48 11.53L9.48 11.53L9.48 11.53Q9.62 11.05 9.62 10.67L9.62 10.67L9.62 10.67Q9.62 9.41 8.43 8.44L8.43 8.44L9.58 7.21ZM17.21 15.57L17.21 15.57Q16.87 16.67 16.17 17.38L16.17 17.38L16.17 17.38Q15.47 18.09 14.35 18.09L14.35 18.09L14.35 18.09Q13.52 18.09 13.09 17.51L13.09 17.51L13.09 17.51Q12.66 16.93 12.66 16.06L12.66 16.06L12.66 9.80L12.66 9.80Q12.66 9.44 12.50 9.20L12.50 9.20L12.50 9.20Q12.35 8.96 12.01 8.96L12.01 8.96L12.01 8.96Q11.80 8.96 11.56 9.10L11.56 9.10L11.56 9.10Q11.31 9.24 11.19 9.42L11.19 9.42L10.99 9.25L10.99 9.25Q11.17 8.85 11.58 8.54L11.58 8.54L11.58 8.54Q12.00 8.23 12.40 8.23L12.40 8.23L12.40 8.23Q13.13 8.23 13.54 8.75L13.54 8.75L13.54 8.75Q13.96 9.27 13.96 9.94L13.96 9.94L13.96 15.51L13.96 15.51Q13.96 16.28 14.14 16.81L14.14 16.81L14.14 16.81Q14.32 17.33 14.94 17.33L14.94 17.33L14.94 17.33Q15.74 17.33 16.25 16.54L16.25 16.54L16.25 16.54Q16.77 15.75 17.01 14.70L17.01 14.70L17.01 14.70Q17.25 13.65 17.25 12.87L17.25 12.87L17.25 8.58L18.54 8.11L18.54 17.72L18.54 17.72Q18.54 18.66 18.14 19.46L18.14 19.46L18.14 19.46Q17.75 20.26 17.02 20.73L17.02 20.73L17.02 20.73Q16.28 21.21 15.32 21.21L15.32 21.21L15.32 21.21Q14.08 21.21 13.20 20.44L13.20 20.44L14.34 19.49L14.34 19.49Q14.55 19.89 14.97 20.24L14.97 20.24L14.97 20.24Q15.39 20.58 15.86 20.58L15.86 20.58L15.86 20.58Q16.35 20.58 16.67 20.31L16.67 20.31L16.67 20.31Q16.98 20.05 17.11 19.67L17.11 19.67L17.11 19.67Q17.25 19.29 17.25 18.97L17.25 18.97L17.25 15.57L17.21 15.57ZM27.15 7.74L27.30 7.90L27.30 7.90Q26.75 8.61 25.94 9.07L25.94 9.07L25.94 9.07Q25.13 9.52 24.26 9.52L24.26 9.52L24.26 9.52Q23.98 9.87 23.86 10.18L23.86 10.18L23.86 10.18Q23.73 10.49 23.73 10.91L23.73 10.91L23.73 15.47L23.73 15.47Q23.73 16.56 23.39 17.19L23.39 17.19L23.39 17.19Q23.06 17.81 22.32 18.38L22.32 18.38L22.02 18.10L22.02 18.10Q22.23 17.86 22.34 17.49L22.34 17.49L22.34 17.49Q22.44 17.11 22.44 16.73L22.44 16.73L22.44 11.72L22.44 11.72Q22.44 11.09 22.78 10.51L22.78 10.51L22.78 10.51Q23.11 9.94 23.63 9.52L23.63 9.52L21.70 9.51L21.70 9.51Q21.17 9.51 20.79 9.70L20.79 9.70L20.79 9.70Q20.41 9.88 20.05 10.29L20.05 10.29L19.78 10.08L19.78 10.08Q20.48 9.23 21.26 8.76L21.26 8.76L21.26 8.76Q22.04 8.30 22.85 8.30L22.85 8.30L24.01 8.30L24.01 8.30Q25.02 8.30 25.89 8.20L25.89 8.20L25.89 8.20Q26.75 8.09 27.15 7.74L27.15 7.74Z"></path></g><!----><g data-v-423bf9ae="" id="c3d9b414-24bd-4513-a689-4a47d4af24e1" transform="matrix(1.0868111504448785,0,0,1.0868111504448785,-13.255261890115804,-0.23894260335429607)" stroke="none" fill="white"><g clip-rule="evenodd"><path d="M12.983 10.59l17.018 88.223-5.872-59.049 29.021-1.892-.054-9.883L64.549 1 53.622 18.977z"></path><path d="M59.389 54.548l5.16-53.541-8.74 39.716-19.612 1.045 1.57 20.462-7.766 36.583 12.057-39.899z"></path><path d="M62.8 67.182l.549-10.453-15.979 3.755-.032 11.797-17.337 26.532 21.68-27.616zM65.711 62.394l14.841-4.731 1.509-12.532-15.899 2.095zM72.07 44.502l10.988-1.417 1.581-10.278-8.079-.373L64.549 1l8.43 30.967z"></path><path d="M87.413 31.294l1.256-9.506-9.544-2.694L64.549 1l14.483 22.437-.422 7z"></path></g></g><!----></svg>